<mxfile host="app.diagrams.net" modified="2024-02-28T19:18:56.521Z" agent="Mozilla/5.0 (Macintosh; Intel Mac OS X 10_15_7) AppleWebKit/605.1.15 (KHTML, like Gecko) Version/16.6 Safari/605.1.15" etag="xxXFqoylOmrU2jgHlBrB" version="23.1.7" type="github">
  <diagram name="Page-1" id="G-KZbw0lzqeQMQCS4S0P">
    <mxGraphModel dx="995" dy="664" grid="1" gridSize="10" guides="1" tooltips="1" connect="1" arrows="1" fold="1" page="1" pageScale="1" pageWidth="850" pageHeight="1100" math="0" shadow="0">
      <root>
        <mxCell id="0" />
        <mxCell id="1" parent="0" />
        <mxCell id="6JQP9U9zHEbJzKH9gIFG-116" value="Peer&#xa;&#xa;&#xa;&#xa;&#xa;&#xa;&#xa;&#xa;&#xa;&#xa;&#xa;&#xa;&#xa;" style="html=1;overflow=block;blockSpacing=1;whiteSpace=wrap;fontSize=16.7;fontColor=#3a414a;spacing=3.8;strokeColor=#3a414a;strokeOpacity=100;rounded=1;absoluteArcSize=1;arcSize=9;strokeWidth=0.8;lucidId=gJdIC6EkD9Za;container=1;collapsible=0;" parent="1" vertex="1">
          <mxGeometry x="425" y="450" width="119" height="125" as="geometry" />
        </mxCell>
        <mxCell id="6JQP9U9zHEbJzKH9gIFG-58" style="edgeStyle=orthogonalEdgeStyle;rounded=0;orthogonalLoop=1;jettySize=auto;html=1;entryX=0;entryY=0.25;entryDx=0;entryDy=0;" parent="1" source="6JQP9U9zHEbJzKH9gIFG-1" target="6JQP9U9zHEbJzKH9gIFG-116" edge="1">
          <mxGeometry relative="1" as="geometry">
            <mxPoint x="416.6400000000001" y="555.8299999999999" as="targetPoint" />
            <Array as="points">
              <mxPoint x="350" y="268" />
              <mxPoint x="350" y="481" />
            </Array>
          </mxGeometry>
        </mxCell>
        <mxCell id="6JQP9U9zHEbJzKH9gIFG-1" value="Client" style="html=1;overflow=block;blockSpacing=1;whiteSpace=wrap;fontSize=16.7;fontColor=#3a414a;spacing=3.8;strokeColor=#3a414a;strokeOpacity=100;rounded=1;absoluteArcSize=1;arcSize=9;strokeWidth=0.8;lucidId=gJdIgxv0D-uK;" parent="1" vertex="1">
          <mxGeometry x="43" y="230" width="75" height="75" as="geometry" />
        </mxCell>
        <mxCell id="6JQP9U9zHEbJzKH9gIFG-2" value="Ordering Service" style="html=1;overflow=block;blockSpacing=1;whiteSpace=wrap;fontSize=16.7;fontColor=#3a414a;spacing=3.8;strokeColor=#3a414a;strokeOpacity=100;rounded=1;absoluteArcSize=1;arcSize=9;strokeWidth=0.8;lucidId=gJdIvHb7BSO.;" parent="1" vertex="1">
          <mxGeometry x="193" y="80" width="150" height="75" as="geometry" />
        </mxCell>
        <mxCell id="6JQP9U9zHEbJzKH9gIFG-3" value="Peer&#xa;&#xa;&#xa;&#xa;&#xa;&#xa;&#xa;&#xa;&#xa;&#xa;&#xa;&#xa;&#xa;" style="html=1;overflow=block;blockSpacing=1;whiteSpace=wrap;fontSize=16.7;fontColor=#3a414a;spacing=3.8;strokeColor=#3a414a;strokeOpacity=100;rounded=1;absoluteArcSize=1;arcSize=9;strokeWidth=0.8;lucidId=gJdIC6EkD9Za;container=1;collapsible=0;" parent="1" vertex="1">
          <mxGeometry x="421" y="154" width="360" height="270" as="geometry" />
        </mxCell>
        <mxCell id="F5yPE0KpYlvUE_DYU9En-2" style="edgeStyle=orthogonalEdgeStyle;rounded=0;orthogonalLoop=1;jettySize=auto;html=1;entryX=0;entryY=0.5;entryDx=0;entryDy=0;exitX=-0.016;exitY=0.705;exitDx=0;exitDy=0;exitPerimeter=0;dashed=1;" edge="1" parent="6JQP9U9zHEbJzKH9gIFG-3" source="6JQP9U9zHEbJzKH9gIFG-4" target="6JQP9U9zHEbJzKH9gIFG-3">
          <mxGeometry relative="1" as="geometry">
            <Array as="points">
              <mxPoint x="39" y="135" />
              <mxPoint x="39" y="135" />
            </Array>
          </mxGeometry>
        </mxCell>
        <mxCell id="6JQP9U9zHEbJzKH9gIFG-4" value="&lt;font style=&quot;font-size: 17px;&quot;&gt;chaincode&lt;/font&gt;" style="html=1;overflow=block;blockSpacing=1;whiteSpace=wrap;fontSize=16.7;fontColor=#3a414a;spacing=3.8;strokeColor=#3a414a;strokeOpacity=100;rounded=1;absoluteArcSize=1;arcSize=9;strokeWidth=0.8;lucidId=gJdI5SxZYz~T;" parent="6JQP9U9zHEbJzKH9gIFG-3" vertex="1">
          <mxGeometry x="50" y="80" width="85" height="78" as="geometry" />
        </mxCell>
        <mxCell id="6JQP9U9zHEbJzKH9gIFG-5" value="worldstate" style="html=1;overflow=block;blockSpacing=1;whiteSpace=wrap;shape=mxgraph.aws3.dynamo_db;labelPosition=center;verticalLabelPosition=bottom;align=center;verticalAlign=top;pointerEvents=1;fontSize=16.7;fontColor=#3a414a;spacing=3.8;strokeColor=#3a414a;strokeOpacity=100;rounded=1;absoluteArcSize=1;arcSize=9;fillColor=#2e73b8;strokeWidth=0.8;lucidId=gJdIeH.mhM4w;" parent="6JQP9U9zHEbJzKH9gIFG-3" vertex="1">
          <mxGeometry x="233" y="165" width="90" height="75" as="geometry" />
        </mxCell>
        <mxCell id="6JQP9U9zHEbJzKH9gIFG-6" value="Block &amp;amp; Txn&lt;br&gt;Validator" style="html=1;overflow=block;blockSpacing=1;whiteSpace=wrap;fontSize=16.7;fontColor=#3a414a;spacing=3.8;strokeColor=#3a414a;strokeOpacity=100;rounded=1;absoluteArcSize=1;arcSize=9;strokeWidth=0.8;lucidId=gJdIPFnTu.oT;" parent="6JQP9U9zHEbJzKH9gIFG-3" vertex="1">
          <mxGeometry x="225.5" y="12" width="105" height="45" as="geometry" />
        </mxCell>
        <mxCell id="6JQP9U9zHEbJzKH9gIFG-7" value="Ledger" style="html=1;overflow=block;blockSpacing=1;whiteSpace=wrap;shape=cylinder3;direction=south;size=10;anchorPointDirection=0;boundedLbl=1;fontSize=16.7;fontColor=#3a414a;spacing=3.8;strokeColor=#3a414a;strokeOpacity=100;rounded=1;absoluteArcSize=1;arcSize=9;strokeWidth=0.8;lucidId=gJdIh2kn3Ske;" parent="6JQP9U9zHEbJzKH9gIFG-3" vertex="1">
          <mxGeometry x="225" y="114" width="105" height="44" as="geometry" />
        </mxCell>
        <mxCell id="6JQP9U9zHEbJzKH9gIFG-8" value="" style="html=1;jettySize=18;whiteSpace=wrap;fontSize=13;strokeColor=#3a414a;strokeOpacity=100;strokeWidth=0.8;rounded=1;arcSize=12;edgeStyle=orthogonalEdgeStyle;startArrow=none;endArrow=block;endFill=1;exitX=1.005;exitY=0.5;exitPerimeter=0;entryX=0;entryY=0.462;entryPerimeter=0;lucidId=gJdI9AyTRsS.;" parent="6JQP9U9zHEbJzKH9gIFG-3" source="6JQP9U9zHEbJzKH9gIFG-4" target="6JQP9U9zHEbJzKH9gIFG-5" edge="1">
          <mxGeometry width="100" height="100" relative="1" as="geometry">
            <Array as="points" />
          </mxGeometry>
        </mxCell>
        <mxCell id="6JQP9U9zHEbJzKH9gIFG-9" value="&lt;font style=&quot;font-size: 16px;&quot;&gt;2. get_state&lt;/font&gt;" style="text;html=1;resizable=0;labelBackgroundColor=default;align=center;verticalAlign=middle;fontStyle=1;fontColor=#333333;fontSize=13.3;" parent="6JQP9U9zHEbJzKH9gIFG-8" vertex="1">
          <mxGeometry x="-0.47838870128141253" relative="1" as="geometry">
            <mxPoint x="-2" y="39" as="offset" />
          </mxGeometry>
        </mxCell>
        <mxCell id="6JQP9U9zHEbJzKH9gIFG-10" value="" style="html=1;jettySize=18;whiteSpace=wrap;fontSize=13;strokeColor=#3a414a;strokeOpacity=100;strokeWidth=0.8;rounded=1;arcSize=12;edgeStyle=orthogonalEdgeStyle;startArrow=none;endArrow=block;endFill=1;exitX=0.5;exitY=1.008;exitPerimeter=0;entryX=0.5;entryY=-0.009;entryPerimeter=0;lucidId=gJdIpPk4oHPC;" parent="6JQP9U9zHEbJzKH9gIFG-3" source="6JQP9U9zHEbJzKH9gIFG-6" target="6JQP9U9zHEbJzKH9gIFG-7" edge="1">
          <mxGeometry width="100" height="100" relative="1" as="geometry">
            <Array as="points" />
          </mxGeometry>
        </mxCell>
        <mxCell id="6JQP9U9zHEbJzKH9gIFG-11" value="&lt;font style=&quot;font-size: 16px;&quot;&gt;9. Validate txn, if valid,&lt;br&gt;update ledger &amp;amp; worldstate&lt;/font&gt;" style="text;html=1;resizable=0;labelBackgroundColor=default;align=center;verticalAlign=middle;fontStyle=1;fontColor=#333333;fontSize=13.3;" parent="6JQP9U9zHEbJzKH9gIFG-10" vertex="1">
          <mxGeometry x="-0.3578581693730789" relative="1" as="geometry">
            <mxPoint x="-29" y="5" as="offset" />
          </mxGeometry>
        </mxCell>
        <mxCell id="6JQP9U9zHEbJzKH9gIFG-120" value="&lt;font style=&quot;font-size: 16px;&quot;&gt;world state: {&lt;br&gt;&amp;nbsp; Alice: &quot;Data Alice&quot;,&lt;br&gt;&amp;nbsp; Bob: &quot;Data Bob&quot;,&lt;br&gt;}&lt;/font&gt;" style="text;html=1;resizable=0;labelBackgroundColor=default;align=left;verticalAlign=middle;fontStyle=1;fontColor=#333333;fontSize=13.3;" parent="6JQP9U9zHEbJzKH9gIFG-3" vertex="1">
          <mxGeometry x="9.004999999999995" y="216" as="geometry" />
        </mxCell>
        <mxCell id="F5yPE0KpYlvUE_DYU9En-3" style="edgeStyle=orthogonalEdgeStyle;rounded=0;orthogonalLoop=1;jettySize=auto;html=1;entryX=0.001;entryY=0.417;entryDx=0;entryDy=0;entryPerimeter=0;exitX=0.002;exitY=0.423;exitDx=0;exitDy=0;exitPerimeter=0;dashed=1;startArrow=classic;startFill=1;endArrow=none;endFill=0;" edge="1" parent="6JQP9U9zHEbJzKH9gIFG-3" source="6JQP9U9zHEbJzKH9gIFG-4" target="6JQP9U9zHEbJzKH9gIFG-3">
          <mxGeometry relative="1" as="geometry">
            <Array as="points">
              <mxPoint x="29" y="113" />
            </Array>
          </mxGeometry>
        </mxCell>
        <mxCell id="6JQP9U9zHEbJzKH9gIFG-12" value="" style="html=1;jettySize=18;whiteSpace=wrap;fontSize=13;strokeColor=#3a414a;strokeOpacity=100;strokeWidth=0.8;rounded=1;arcSize=12;edgeStyle=orthogonalEdgeStyle;startArrow=none;endArrow=block;endFill=1;exitX=1.005;exitY=0.5;exitPerimeter=0;lucidId=gJdIXWOxPbk5;" parent="1" edge="1">
          <mxGeometry width="100" height="100" relative="1" as="geometry">
            <Array as="points" />
            <mxPoint x="118.375" y="266.5" as="sourcePoint" />
            <mxPoint x="420" y="267" as="targetPoint" />
          </mxGeometry>
        </mxCell>
        <mxCell id="6JQP9U9zHEbJzKH9gIFG-13" value="&lt;font size=&quot;1&quot; color=&quot;#333333&quot;&gt;&lt;span style=&quot;caret-color: rgb(51, 51, 51);&quot;&gt;&lt;b style=&quot;font-size: 16px;&quot;&gt;1. Invoke Chaincode&lt;/b&gt;&lt;/span&gt;&lt;/font&gt;" style="text;html=1;resizable=0;labelBackgroundColor=default;align=center;verticalAlign=middle;" parent="6JQP9U9zHEbJzKH9gIFG-12" vertex="1">
          <mxGeometry x="-0.6624911630150677" relative="1" as="geometry">
            <mxPoint x="31" y="-17" as="offset" />
          </mxGeometry>
        </mxCell>
        <mxCell id="6JQP9U9zHEbJzKH9gIFG-57" style="edgeStyle=orthogonalEdgeStyle;rounded=0;orthogonalLoop=1;jettySize=auto;html=1;exitX=0;exitY=0;exitDx=0;exitDy=0;" parent="6JQP9U9zHEbJzKH9gIFG-12" source="6JQP9U9zHEbJzKH9gIFG-13" target="6JQP9U9zHEbJzKH9gIFG-13" edge="1">
          <mxGeometry relative="1" as="geometry" />
        </mxCell>
        <mxCell id="6JQP9U9zHEbJzKH9gIFG-14" value="" style="html=1;jettySize=18;whiteSpace=wrap;overflow=block;blockSpacing=1;fontSize=13;strokeColor=#3a414a;strokeOpacity=100;strokeWidth=0.8;rounded=1;arcSize=12;edgeStyle=orthogonalEdgeStyle;startArrow=none;endArrow=block;endFill=1;exitX=0.5;exitY=1.005;exitPerimeter=0;entryX=0.853;entryY=1.005;entryPerimeter=0;lucidId=gJdI6e9lcOTb;" parent="1" source="6JQP9U9zHEbJzKH9gIFG-1" target="6JQP9U9zHEbJzKH9gIFG-1" edge="1">
          <mxGeometry width="100" height="100" relative="1" as="geometry">
            <Array as="points">
              <mxPoint x="81" y="325" generated="1" />
              <mxPoint x="107" y="325" generated="1" />
            </Array>
          </mxGeometry>
        </mxCell>
        <mxCell id="6JQP9U9zHEbJzKH9gIFG-15" value="&lt;font style=&quot;font-size: 16px;&quot;&gt;4. Collect Endorsement&lt;br&gt;5. Make Txn&lt;/font&gt;" style="text;html=1;resizable=0;labelBackgroundColor=default;align=center;verticalAlign=middle;fontStyle=1;fontColor=#333333;fontSize=13.3;" parent="6JQP9U9zHEbJzKH9gIFG-14" vertex="1">
          <mxGeometry relative="1" as="geometry">
            <mxPoint x="-4" y="25" as="offset" />
          </mxGeometry>
        </mxCell>
        <mxCell id="6JQP9U9zHEbJzKH9gIFG-16" value="" style="html=1;jettySize=18;whiteSpace=wrap;fontSize=13;strokeColor=#3a414a;strokeOpacity=100;strokeWidth=0.8;rounded=1;arcSize=12;edgeStyle=orthogonalEdgeStyle;startArrow=none;endArrow=block;endFill=1;exitX=0.707;exitY=-0.005;exitPerimeter=0;entryX=-0.002;entryY=0.5;entryPerimeter=0;lucidId=gJdIMfJJn0Pu;" parent="1" source="6JQP9U9zHEbJzKH9gIFG-1" target="6JQP9U9zHEbJzKH9gIFG-2" edge="1">
          <mxGeometry width="100" height="100" relative="1" as="geometry">
            <Array as="points" />
          </mxGeometry>
        </mxCell>
        <mxCell id="6JQP9U9zHEbJzKH9gIFG-17" value="&lt;font style=&quot;font-size: 16px;&quot;&gt;6. Send Txn&lt;/font&gt;" style="text;html=1;resizable=0;labelBackgroundColor=default;align=center;verticalAlign=middle;fontStyle=1;fontColor=#333333;fontSize=13.3;" parent="6JQP9U9zHEbJzKH9gIFG-16" vertex="1">
          <mxGeometry x="0.5863560893171429" relative="1" as="geometry">
            <mxPoint x="-10" y="-17" as="offset" />
          </mxGeometry>
        </mxCell>
        <mxCell id="6JQP9U9zHEbJzKH9gIFG-18" value="" style="html=1;jettySize=18;whiteSpace=wrap;fontSize=13;strokeColor=#3a414a;strokeOpacity=100;strokeWidth=0.8;rounded=1;arcSize=12;edgeStyle=orthogonalEdgeStyle;startArrow=none;endArrow=block;endFill=1;exitX=0.767;exitY=-0.005;exitPerimeter=0;entryX=0.247;entryY=-0.005;entryPerimeter=0;lucidId=gJdIUVIgrSRE;" parent="1" source="6JQP9U9zHEbJzKH9gIFG-2" target="6JQP9U9zHEbJzKH9gIFG-2" edge="1">
          <mxGeometry width="100" height="100" relative="1" as="geometry">
            <Array as="points">
              <mxPoint x="308" y="60" generated="1" />
              <mxPoint x="230" y="60" generated="1" />
            </Array>
          </mxGeometry>
        </mxCell>
        <mxCell id="6JQP9U9zHEbJzKH9gIFG-19" value="&lt;font style=&quot;font-size: 16px;&quot;&gt;7. Collect Txn, Order, Create block&lt;/font&gt;" style="text;html=1;resizable=0;labelBackgroundColor=default;align=center;verticalAlign=middle;fontStyle=1;fontColor=#333333;fontSize=13.3;" parent="6JQP9U9zHEbJzKH9gIFG-18" vertex="1">
          <mxGeometry relative="1" as="geometry">
            <mxPoint x="-1" y="-20" as="offset" />
          </mxGeometry>
        </mxCell>
        <mxCell id="6JQP9U9zHEbJzKH9gIFG-59" style="edgeStyle=orthogonalEdgeStyle;rounded=0;orthogonalLoop=1;jettySize=auto;html=1;entryX=0.993;entryY=0.844;entryDx=0;entryDy=0;entryPerimeter=0;exitX=0;exitY=0.5;exitDx=0;exitDy=0;" parent="1" source="6JQP9U9zHEbJzKH9gIFG-116" target="6JQP9U9zHEbJzKH9gIFG-1" edge="1">
          <mxGeometry relative="1" as="geometry">
            <mxPoint x="417" y="510" as="sourcePoint" />
            <Array as="points">
              <mxPoint x="300" y="513" />
              <mxPoint x="300" y="293" />
            </Array>
          </mxGeometry>
        </mxCell>
        <mxCell id="6JQP9U9zHEbJzKH9gIFG-20" value="" style="html=1;jettySize=18;whiteSpace=wrap;fontSize=13;strokeColor=#3a414a;strokeOpacity=100;strokeWidth=0.8;rounded=1;arcSize=12;edgeStyle=orthogonalEdgeStyle;startArrow=none;endArrow=block;endFill=1;lucidId=gJdIGSDJXt0t;" parent="1" edge="1">
          <mxGeometry width="100" height="100" relative="1" as="geometry">
            <Array as="points" />
            <mxPoint x="420" y="290" as="sourcePoint" />
            <mxPoint x="118" y="290" as="targetPoint" />
          </mxGeometry>
        </mxCell>
        <mxCell id="6JQP9U9zHEbJzKH9gIFG-21" value="&lt;font style=&quot;font-size: 16px;&quot;&gt;3. Return Response&lt;/font&gt;" style="text;html=1;resizable=0;labelBackgroundColor=default;align=center;verticalAlign=middle;fontStyle=1;fontColor=#333333;fontSize=13.3;" parent="6JQP9U9zHEbJzKH9gIFG-20" vertex="1">
          <mxGeometry x="0.5066110514761524" relative="1" as="geometry">
            <mxPoint x="7" y="15" as="offset" />
          </mxGeometry>
        </mxCell>
        <mxCell id="6JQP9U9zHEbJzKH9gIFG-31" value="" style="html=1;jettySize=18;whiteSpace=wrap;fontSize=13;strokeColor=#3a414a;strokeOpacity=100;strokeWidth=0.8;rounded=1;arcSize=12;edgeStyle=orthogonalEdgeStyle;startArrow=none;endArrow=block;endFill=1;exitX=1.002;exitY=0.5;exitPerimeter=0;entryX=0.5;entryY=-0.008;entryPerimeter=0;lucidId=gJdI1uD7Hwsn;" parent="1" source="6JQP9U9zHEbJzKH9gIFG-2" target="6JQP9U9zHEbJzKH9gIFG-6" edge="1">
          <mxGeometry width="100" height="100" relative="1" as="geometry">
            <Array as="points" />
          </mxGeometry>
        </mxCell>
        <mxCell id="6JQP9U9zHEbJzKH9gIFG-32" value="&lt;font style=&quot;font-size: 16px;&quot;&gt;8. Boardcast Block&lt;/font&gt;" style="text;html=1;resizable=0;labelBackgroundColor=default;align=center;verticalAlign=middle;fontStyle=1;fontColor=#333333;fontSize=13.3;" parent="6JQP9U9zHEbJzKH9gIFG-31" vertex="1">
          <mxGeometry x="-0.4789578713886864" relative="1" as="geometry">
            <mxPoint x="-23" y="-17" as="offset" />
          </mxGeometry>
        </mxCell>
        <mxCell id="6JQP9U9zHEbJzKH9gIFG-56" style="edgeStyle=orthogonalEdgeStyle;rounded=0;orthogonalLoop=1;jettySize=auto;html=1;entryX=1;entryY=0.5;entryDx=0;entryDy=0;" parent="1" source="6JQP9U9zHEbJzKH9gIFG-2" target="6JQP9U9zHEbJzKH9gIFG-119" edge="1">
          <mxGeometry relative="1" as="geometry">
            <mxPoint x="810" y="400" as="targetPoint" />
            <Array as="points">
              <mxPoint x="810" y="118" />
              <mxPoint x="810" y="513" />
            </Array>
          </mxGeometry>
        </mxCell>
        <mxCell id="6JQP9U9zHEbJzKH9gIFG-118" value="Peer&#xa;&#xa;&#xa;&#xa;&#xa;&#xa;&#xa;&#xa;&#xa;&#xa;&#xa;&#xa;&#xa;" style="html=1;overflow=block;blockSpacing=1;whiteSpace=wrap;fontSize=16.7;fontColor=#3a414a;spacing=3.8;strokeColor=#3a414a;strokeOpacity=100;rounded=1;absoluteArcSize=1;arcSize=9;strokeWidth=0.8;lucidId=gJdIC6EkD9Za;container=1;collapsible=0;" parent="1" vertex="1">
          <mxGeometry x="545" y="450" width="119" height="125" as="geometry" />
        </mxCell>
        <mxCell id="6JQP9U9zHEbJzKH9gIFG-119" value="Peer&#xa;&#xa;&#xa;&#xa;&#xa;&#xa;&#xa;&#xa;&#xa;&#xa;&#xa;&#xa;&#xa;" style="html=1;overflow=block;blockSpacing=1;whiteSpace=wrap;fontSize=16.7;fontColor=#3a414a;spacing=3.8;strokeColor=#3a414a;strokeOpacity=100;rounded=1;absoluteArcSize=1;arcSize=9;strokeWidth=0.8;lucidId=gJdIC6EkD9Za;container=1;collapsible=0;" parent="1" vertex="1">
          <mxGeometry x="665" y="450" width="119" height="125" as="geometry" />
        </mxCell>
      </root>
    </mxGraphModel>
  </diagram>
</mxfile>
